<svg width="53" height="50" viewBox="0 0 53 50" fill="none" xmlns="http://www.w3.org/2000/svg">
<path fill-rule="evenodd" clip-rule="evenodd" d="M26.7852 0C12.5219 0 0.95874 11.1932 0.95874 25C0.95874 38.8068 12.5219 50 26.7852 50C41.0484 50 52.6116 38.8068 52.6116 25C52.6116 11.1932 41.0484 0 26.7852 0ZM5.65446 25C5.65446 29.75 7.32848 34.1227 10.1342 37.5955C12.1046 35.0907 14.6465 33.0608 17.5615 31.6643C20.4764 30.2679 23.6854 29.5427 26.9378 29.5455C30.1481 29.5425 33.3167 30.2489 36.2023 31.6109C39.0878 32.9728 41.6142 34.9544 43.5888 37.4045C45.6231 34.8218 46.9928 31.8073 47.5846 28.6104C48.1764 25.4136 47.9733 22.1262 46.992 19.0204C46.0108 15.9146 44.2796 13.0797 41.9418 10.7501C39.6039 8.42052 36.7266 6.66332 33.5479 5.62388C30.3692 4.58445 26.9805 4.29266 23.6622 4.77267C20.3439 5.25267 17.1913 6.49066 14.4654 8.38421C11.7395 10.2778 9.51859 12.7724 7.98642 15.6618C6.45425 18.5512 5.65488 21.7522 5.65446 25ZM26.7852 45.4545C21.9344 45.4616 17.23 43.8462 13.4681 40.8818C14.9823 38.7835 16.9978 37.0703 19.3429 35.8879C21.6881 34.7056 24.2936 34.0891 26.9378 34.0909C29.549 34.0889 32.123 34.6899 34.4461 35.8441C36.7691 36.9984 38.7742 38.6724 40.2948 40.7273C36.5037 43.788 31.7218 45.4613 26.7852 45.4545Z" fill="#DADADA"/>
</svg>
