<svg width="29" height="32" viewBox="0 0 29 32" fill="none" xmlns="http://www.w3.org/2000/svg">
<path d="M20.9024 21.0764C21.8369 20.5703 22.9065 20.2822 24.0457 20.2822H24.0496C24.1654 20.2822 24.2195 20.1421 24.1345 20.0642C22.9498 18.9924 21.5966 18.1268 20.1301 17.5027C20.1147 17.4949 20.0992 17.491 20.0838 17.4832C22.4818 15.7275 24.0418 12.874 24.0418 9.6545C24.0418 4.32117 19.7633 0 14.4846 0C9.20592 0 4.93124 4.32117 4.93124 9.6545C4.93124 12.874 6.49129 15.7275 8.89314 17.4832C8.8777 17.491 8.86225 17.4949 8.84681 17.5027C7.12071 18.2384 5.57225 19.2934 4.24003 20.6404C2.9155 21.9733 1.86101 23.5534 1.13538 25.2925C0.421437 26.9955 0.0361302 28.8201 9.65608e-05 30.6686C-0.000934094 30.7102 0.00629475 30.7515 0.0213573 30.7902C0.0364199 30.8289 0.0590114 30.8641 0.0878006 30.8939C0.11659 30.9236 0.150994 30.9473 0.188987 30.9634C0.226979 30.9795 0.267791 30.9878 0.309017 30.9878H2.62206C2.7881 30.9878 2.92712 30.8516 2.93098 30.6842C3.00821 27.6788 4.20141 24.8642 6.31366 22.7309C8.49541 20.5236 11.3993 19.309 14.4885 19.309C16.6779 19.309 18.7786 19.9202 20.5896 21.0647C20.6362 21.0942 20.6896 21.1108 20.7445 21.1128C20.7994 21.1149 20.8539 21.1023 20.9024 21.0764ZM14.4885 16.3504C12.7199 16.3504 11.0556 15.6535 9.8006 14.3883C9.18312 13.7674 8.69361 13.0295 8.36025 12.2171C8.0269 11.4046 7.85629 10.5337 7.85826 9.6545C7.85826 7.86764 8.54947 6.18589 9.8006 4.92068C11.0517 3.65547 12.716 2.95864 14.4885 2.95864C16.2609 2.95864 17.9213 3.65547 19.1763 4.92068C19.7938 5.54157 20.2833 6.27949 20.6167 7.09194C20.95 7.90438 21.1206 8.77529 21.1187 9.6545C21.1187 11.4414 20.4275 13.1231 19.1763 14.3883C17.9213 15.6535 16.257 16.3504 14.4885 16.3504ZM28.6911 25.6156H25.4474V22.3455C25.4474 22.1742 25.3084 22.0341 25.1385 22.0341H22.9761C22.8061 22.0341 22.6671 22.1742 22.6671 22.3455V25.6156H19.4235C19.2536 25.6156 19.1145 25.7557 19.1145 25.927V28.1071C19.1145 28.2783 19.2536 28.4185 19.4235 28.4185H22.6671V31.6886C22.6671 31.8599 22.8061 32 22.9761 32H25.1385C25.3084 32 25.4474 31.8599 25.4474 31.6886V28.4185H28.6911C28.861 28.4185 29 28.2783 29 28.1071V25.927C29 25.7557 28.861 25.6156 28.6911 25.6156Z" fill="#D12424"/>
</svg>
