<svg width="52" height="50" viewBox="0 0 52 50" fill="none" xmlns="http://www.w3.org/2000/svg">
<path d="M50.2826 30.2625L41.3802 25.955V25C41.3801 24.5686 41.2647 24.1446 41.0452 23.7692C40.8257 23.3937 40.5096 23.0797 40.1276 22.8575L28.467 16.085V10H33.6322V5H28.467V0H23.3017V5H18.1364V10H23.3017V16.085L11.641 22.8575C11.259 23.0797 10.9429 23.3937 10.7234 23.7692C10.5039 24.1446 10.3885 24.5686 10.3884 25V25.955L1.48606 30.265C1.05676 30.472 0.695641 30.7909 0.44333 31.1857C0.191019 31.5806 0.057524 32.0357 0.057862 32.5V47.5C0.057862 48.163 0.329961 48.7989 0.814301 49.2678C1.29864 49.7366 1.95555 50 2.64051 50H49.1281C49.8131 50 50.47 49.7366 50.9543 49.2678C51.4387 48.7989 51.7108 48.163 51.7108 47.5V32.5C51.7108 31.5525 51.1581 30.6875 50.2826 30.2625ZM5.22315 34.045L10.3884 31.545V45H5.22315V34.045ZM25.8843 32.5C24.5144 32.5 23.2006 33.0268 22.2319 33.9645C21.2632 34.9021 20.719 36.1739 20.719 37.5V45H15.5537V26.415L25.8843 20.415L36.2149 26.415V45H31.0496V37.5C31.0496 36.1739 30.5054 34.9021 29.5367 33.9645C28.568 33.0268 27.2542 32.5 25.8843 32.5ZM46.5455 45H41.3802V31.545L46.5455 34.045V45Z" fill="#DADADA"/>
</svg>
